<svg xmlns="http://www.w3.org/2000/svg" fill="#fff" viewBox="0 0 40 40">
  <path d="M20 6a1 1 0 0 1 1 1v6a1 1 0 0 1-2 0V7a1 1 0 0 1 1-1Zm0 20a1 1 0 0 1 1 1v6a1 1 0 0 1-2 0v-6a1 1 0 0 1 1-1Zm14-6a1 1 0 0 1-1 1h-6a1 1 0 0 1 0-2h6a1 1 0 0 1 1 1Zm-20 0a1 1 0 0 1-1 1H7a1 1 0 0 1 0-2h6a1 1 0 0 1 1 1Zm-3.9-9.9a1 1 0 0 1 1.414 0l4.246 4.244a1 1 0 0 1-1.414 1.414L10.1 11.514a1 1 0 0 1 0-1.414Zm14.142 14.142a1 1 0 0 1 1.414 0l4.244 4.244a1 1 0 0 1-1.414 1.414l-4.244-4.244a1 1 0 0 1 0-1.414Zm5.658-14.14a1 1 0 0 1 0 1.412l-4.244 4.246a1 1 0 0 1-1.414-1.414l4.244-4.244a1 1 0 0 1 1.414 0Zm-14.142 14.14a1 1 0 0 1 0 1.414L11.514 29.9a1 1 0 0 1-1.414-1.414l4.244-4.244a1 1 0 0 1 1.414 0Z"/>
</svg>
